# xmcd CD database file
#
# Track frame offsets:
#	150
#	9685
#	21418
#	32745
#	45070
#	53598
#	60375
#	71955
#	80553
#	95620
#
# Disc length: 1434 seconds
#
# Revision: 0
# Processed by: cddbd v1.4PL0 Copyright (c) Steve Scherf et al.
# Submitted via: CDex 1.51
#
DISCID=7a05980a
DTITLE=Willie Nelson and Waylon Jennings - Outlaw Reunion Vol. 1
DYEAR=1900
DGENRE=Country
TTITLE0=Building Heartaches
TTITLE1=Crying
TTITLE2=Sally Was A Good Old Girl
TTITLE3=Pages
TTITLE4=Abilene
TTITLE5=It's So Easy
TTITLE6=Is There Something On Your Mind?
TTITLE7=Love's Going To Live Here
TTITLE8=Face Of A Fighter
TTITLE9=Don't Think Twice
EXTD=
EXTT0=
EXTT1=
EXTT2=
EXTT3=
EXTT4=
EXTT5=
EXTT6=
EXTT7=
EXTT8=
EXTT9=
PLAYORDER=
